<?xml version="1.0" encoding="UTF-8"?>
<svg width="500px" height="500px" viewBox="0 0 500 500" version="1.1" xmlns="http://www.w3.org/2000/svg" xmlns:xlink="http://www.w3.org/1999/xlink">
    <!-- Generator: Sketch 41.2 (35397) - http://www.bohemiancoding.com/sketch -->
    <title>Logo above text (white, no background)</title>
    <desc>Created with Sketch.</desc>
    <defs></defs>
    <g id="Page-1" stroke="none" stroke-width="1" fill="none" fill-rule="evenodd">
        <g id="Logo-above-text-(white,-no-background)" fill="#FFFFFF">
            <g id="budacode_logo_javitott" transform="translate(115.000000, 111.000000)">
                <g id="Group-20" transform="translate(0.000000, 0.095000)">
                    <path d="M295.537,63 C293.143,63 291.111,64.059 289.329,65.471 L214.45,122.868 C212.729,124.414 212,126.705 212,129.082 C212,131.453 212.786,133.945 214.465,135.294 L289.354,192.704 C291.118,194.188 293.143,195.164 295.537,195.164 C299.916,195.164 304.265,191.866 304.265,187.727 L304.265,70.436 C304.265,66.048 299.916,63 295.537,63" id="Fill-16"></path>
                    <path d="M253.818,184.57 L251.866,182.904 L188.86,134.593 C187.24,133.085 186.443,130.794 186.443,128.423 C186.443,126.046 187.263,123.665 188.866,122.253 L251.866,73.941 L253.865,72.226 C255.51,70.748 256.265,68.453 256.265,66.081 C256.265,63.705 255.569,61.395 253.887,59.933 L178.862,2.416 C177.078,0.989 175.122,0 172.728,0 C168.349,0 164.003,3.153 164.003,7.436 L164,127.176 L164,249.532 C164,253.357 168.349,256.846 172.728,256.846 C175.122,256.846 177.107,255.822 178.922,254.39 L253.815,196.957 C255.51,195.534 256.265,193.135 256.265,190.764 C256.265,188.387 255.539,186.054 253.818,184.57" id="Fill-18"></path>
                </g>
            </g>
        </g>
    </g>
</svg>