<?xml version="1.0" encoding="UTF-8"?>
<svg width="700px" height="600px" viewBox="0 0 700 600" version="1.1" xmlns="http://www.w3.org/2000/svg" xmlns:xlink="http://www.w3.org/1999/xlink">
    <!-- Generator: Sketch 41.2 (35397) - http://www.bohemiancoding.com/sketch -->
    <title>Logo above text (white, no background)</title>
    <desc>Created with Sketch.</desc>
    <defs></defs>
    <g id="Page-1" stroke="none" stroke-width="1" fill="none" fill-rule="evenodd">
        <g id="Logo-above-text-(white,-no-background)" fill="#FFFFFF">
            <g id="budacode_logo_javitott" transform="translate(115.000000, 111.000000)">
                <polygon id="Fill-1" points="440.002 361.626 440.002 348.699 467.559 348.699 467.559 335.772 440.002 335.772 440.002 323.922 469.173 323.922 469.173 311 426 311 426 374.548 470.791 374.548 470.791 361.626"></polygon>
                <g id="Group-20" transform="translate(0.000000, 0.095000)">
                    <path d="M384.273,361.621 L377.001,361.621 L377.001,323.92 L385.26,323.92 C397.11,323.92 407.072,329.755 407.072,342.233 C407.072,356.684 397.287,361.621 384.273,361.621 M384.004,311 L363,311 L363,374.548 L385.889,374.548 C404.831,374.548 421.613,363.506 421.613,342.953 C421.613,319.703 404.469,311 384.004,311" id="Fill-2"></path>
                    <path d="M324.288,363.858 C312.351,363.858 304.541,355.237 304.541,343.393 C304.541,331.543 312.351,322.927 324.288,322.927 C336.228,322.927 344.035,331.543 344.035,343.393 C344.035,355.237 336.228,363.858 324.288,363.858 M324.288,310 C304.451,310 290,323.014 290,343.393 C290,363.766 304.451,376.78 324.288,376.78 C344.125,376.78 358.578,363.766 358.578,343.393 C358.578,323.014 344.125,310 324.288,310" id="Fill-4"></path>
                    <path d="M266.492,363.858 C256.35,363.858 248.54,355.237 248.54,343.393 C248.54,331.543 256.35,322.927 266.941,322.927 C272.148,322.927 276.187,324.812 278.973,328.131 L289.743,319.331 C284.354,312.422 275.379,310 268.287,310 C248.45,310 234,323.014 234,343.393 C234,363.766 248.45,376.78 268.287,376.78 C276.995,376.78 285.972,373.282 291.266,365.743 L279.599,357.035 C276.726,361.344 272.148,363.858 266.492,363.858" id="Fill-6"></path>
                    <path d="M195.128,349.235 L202.848,329.485 L210.659,349.235 L195.128,349.235 Z M197.467,311 L170,374.548 L185.438,374.548 L190.732,361.082 L215.416,361.082 L220.89,374.548 L236.692,374.548 L209.048,311 L197.467,311 Z" id="Fill-8"></path>
                    <path d="M135.276,361.621 L128.005,361.621 L128.005,323.92 L136.264,323.92 C148.111,323.92 158.076,329.755 158.075,342.233 C158.075,356.684 148.29,361.621 135.276,361.621 M135.004,311 L114,311 L114,374.548 L136.889,374.548 C155.829,374.548 172.616,363.506 172.614,342.953 C172.614,319.703 155.47,311 135.004,311" id="Fill-10"></path>
                    <path d="M92.584,349.505 C92.584,357.313 87.198,363.24 79.839,363.24 C72.388,363.24 67.004,357.313 67.004,349.505 L67.004,311 L53,311 L53,350.041 C53,365.033 62.157,376.162 79.842,376.162 C97.434,376.162 106.588,365.033 106.586,350.041 L106.586,311 L92.584,311 L92.584,349.505 Z" id="Fill-12"></path>
                    <path d="M26.565,362.698 L13.999,362.698 L13.999,348.247 L24.59,348.247 C29.168,348.247 35.901,349.235 35.899,355.247 C35.899,360.813 30.966,362.698 26.565,362.698 L26.565,362.698 Z M14.002,322.842 L23.515,322.842 C27.914,322.842 32.939,324.191 32.939,329.488 C32.939,334.605 28.453,336.398 24.144,336.398 L14.002,336.398 L14.002,322.842 Z M35.994,341.337 L35.994,341.158 C42.544,339.093 46.943,334.248 46.943,327.156 C46.943,313.334 34.826,311 23.697,311 L0,311 L0,374.548 L26.029,374.548 C37.338,374.548 49.903,370.149 49.903,356.863 C49.903,348.606 44.34,342.412 35.994,341.337 L35.994,341.337 Z" id="Fill-14"></path>
                    <path d="M295.537,63 C293.143,63 291.111,64.059 289.329,65.471 L214.45,122.868 C212.729,124.414 212,126.705 212,129.082 C212,131.453 212.786,133.945 214.465,135.294 L289.354,192.704 C291.118,194.188 293.143,195.164 295.537,195.164 C299.916,195.164 304.265,191.866 304.265,187.727 L304.265,70.436 C304.265,66.048 299.916,63 295.537,63" id="Fill-16"></path>
                    <path d="M253.818,184.57 L251.866,182.904 L188.86,134.593 C187.24,133.085 186.443,130.794 186.443,128.423 C186.443,126.046 187.263,123.665 188.866,122.253 L251.866,73.941 L253.865,72.226 C255.51,70.748 256.265,68.453 256.265,66.081 C256.265,63.705 255.569,61.395 253.887,59.933 L178.862,2.416 C177.078,0.989 175.122,0 172.728,0 C168.349,0 164.003,3.153 164.003,7.436 L164,127.176 L164,249.532 C164,253.357 168.349,256.846 172.728,256.846 C175.122,256.846 177.107,255.822 178.922,254.39 L253.815,196.957 C255.51,195.534 256.265,193.135 256.265,190.764 C256.265,188.387 255.539,186.054 253.818,184.57" id="Fill-18"></path>
                </g>
            </g>
        </g>
    </g>
</svg>